# xmcd CD database file
#
# Track frame offsets:
#	150
#	49910
#	83810
#	113185
#	145162
#	179190
#	204782
#	235082
#	260529
#
# Disc length: 3837 seconds
#
# Revision: 0
# Processed by: cddbd v1.5.2PL0 Copyright (c) Steve Scherf et al.
# Submitted via: CDex 1.70beta2
#
DISCID=7c0efb09
DTITLE=Dexter Gordon - The complet Vlue Note 60's sessions vol.5
DYEAR=1900
DGENRE=Jazz
TTITLE0=Kong neptune
TTITLE1=Darn that dream
TTITLE2=Hanky panky
TTITLE3=Devilette
TTITLE4=Clubhouse
TTITLE5=Jodi
TTITLE6=I'm a fool to want you
TTITLE7=Lady iris B
TTITLE8=Don't explain
EXTD=
EXTT0=
EXTT1=
EXTT2=
EXTT3=
EXTT4=
EXTT5=
EXTT6=
EXTT7=
EXTT8=
PLAYORDER=
